<svg viewBox="0 0 731 338" xmlns="http://www.w3.org/2000/svg" xmlns:xlink="http://www.w3.org/1999/xlink"><style>:root&gt;svg{display:none}:root&gt;svg:target{display:block}</style><svg fill="none" viewBox="0 0 475 338" id="1" xmlns="http://www.w3.org/2000/svg"><path d="M.5 337.5V.5H475" stroke="#3BB5E0" stroke-dasharray="8 5"/></svg><svg fill="none" viewBox="0 0 731 153" id="2" xmlns="http://www.w3.org/2000/svg"><path d="M731 41.5H543.5M.5 151V41.5h344m0 0V0m0 41.5h199m0 0v111" stroke="#3BB5E0" stroke-dasharray="8 5"/></svg><svg fill="none" viewBox="0 0 731 115" id="3" xmlns="http://www.w3.org/2000/svg"><path d="M731 3.5H556M1 114.5V3.5h345m0 0V0m0 3.5h210m0 0V114" stroke="#3BB5E0" stroke-dasharray="8 5"/></svg><svg fill="none" viewBox="0 0 538 161" id="5" xmlns="http://www.w3.org/2000/svg"><path d="M537.5.5H224M.5 161V.5H224m0 0V104" stroke="#3BB5E0" stroke-dasharray="8 5"/></svg><svg fill="none" viewBox="0 0 424 63" id="6" xmlns="http://www.w3.org/2000/svg"><path d="M424 62.5H33M1 11v51.5h32m0 0V.5" stroke="#3BB5E0" stroke-dasharray="8 5"/></svg><svg fill="none" viewBox="0 0 20 13" id="arrow-1" xmlns="http://www.w3.org/2000/svg"><path clip-rule="evenodd" d="M10 8.946L18.376.942 20 2.494 10 12.05 0 2.494 1.624.942 10 8.946z" fill="#fff" fill-opacity=".6"/></svg><svg fill="none" viewBox="0 0 20 12" id="arrow-2" xmlns="http://www.w3.org/2000/svg"><path clip-rule="evenodd" d="M10 3.946L1.624 11.95 0 10.398 10 .842l10 9.556-1.624 1.552L10 3.946z" fill="#242424"/></svg><svg fill="none" viewBox="0 0 5 11" id="arrow-btn" xmlns="http://www.w3.org/2000/svg"><path fill-rule="evenodd" clip-rule="evenodd" d="M3.603 5.808L0 1.62.699.81 5 5.808.699 10.806 0 9.994l3.603-4.186z" fill="#fff" fill-opacity=".6"/></svg><svg fill="none" viewBox="0 0 5 11" id="arrow-btn-1" xmlns="http://www.w3.org/2000/svg"><path fill-rule="evenodd" clip-rule="evenodd" d="M3.603 5.557L0 1.37.699.558 5 5.557.699 10.555 0 9.743l3.603-4.186z" fill="#000" fill-opacity=".6"/></svg><svg fill="none" viewBox="0 0 11 6" id="arrow-down" xmlns="http://www.w3.org/2000/svg"><path fill-rule="evenodd" clip-rule="evenodd" d="M5.5 4.257L9.688.654l.812.699-5 4.301-5-4.301.812-.699L5.5 4.257z" fill="#000" fill-opacity=".6"/></svg><svg fill="none" viewBox="0 0 600 93" id="line" xmlns="http://www.w3.org/2000/svg"><path d="M600 .5H184M1 93V.5h183m0 0v27" stroke="#3BB5E0" stroke-dasharray="8 5"/></svg><svg fill="none" viewBox="0 0 33 40" id="play" xmlns="http://www.w3.org/2000/svg"><path d="M33 20L0 39.053V.947L33 20z" fill="#fff"/></svg></svg>